<svg version="1.1" viewBox="0.0 0.0 960.0 540.0" fill="none" stroke="none" stroke-linecap="square" stroke-miterlimit="10" xmlns:xlink="http://www.w3.org/1999/xlink" xmlns="http://www.w3.org/2000/svg"><clipPath id="p.0"><path d="m0 0l960.0 0l0 540.0l-960.0 0l0 -540.0z" clip-rule="nonzero"/></clipPath><g clip-path="url(#p.0)"><path fill="#ffffff" d="m0 0l960.0 0l0 540.0l-960.0 0z" fill-rule="evenodd"/><path fill="#000000" fill-opacity="0.0" d="m314.59317 96.362206l228.91342 0l0 260.88187l-228.91342 0z" fill-rule="evenodd"/><path fill="#000000" d="m358.89005 148.54344l40.28125 100.53125l40.28125 -100.53125l21.078125 0l0 123.218765l-16.25 0l0 -47.98439l1.515625 -51.796875l-40.453125 99.781265l-12.4375 0l-40.375 -99.531265l1.609375 51.546875l0 47.98439l-16.25 0l0 -123.218765l21.0 0z" fill-rule="nonzero"/><path fill="#e06666" d="m446.63516 277.11023l0 -108.94487l-47.055115 108.94487z" fill-rule="evenodd"/><path fill="#ea9999" d="m352.52493 277.11023l0 -108.94487l47.055115 108.94487z" fill-rule="evenodd"/></g></svg>